<mxfile host="app.diagrams.net" modified="2022-03-04T00:21:08.704Z" agent="5.0 (Windows NT 10.0; Win64; x64) AppleWebKit/537.36 (KHTML, like Gecko) Chrome/97.0.4692.99 Safari/537.36 OPR/83.0.4254.70" etag="ptV261pjvqTZbdKBQDTd" version="16.6.5" type="github">
  <diagram id="wFE0QG_FPsp0jaGvCLVb" name="Page-1">
    <mxGraphModel dx="1050" dy="517" grid="1" gridSize="10" guides="1" tooltips="1" connect="1" arrows="1" fold="1" page="1" pageScale="1" pageWidth="850" pageHeight="1100" math="0" shadow="0">
      <root>
        <mxCell id="0" />
        <mxCell id="1" parent="0" />
        <mxCell id="y_KYwoBWBj3VRFZjpKTt-33" value="" style="swimlane;startSize=0;fontSize=9;fillColor=#B2C9AB;strokeColor=#788AA3;fontColor=#46495D;" vertex="1" parent="1">
          <mxGeometry x="20" y="40" width="200" height="390" as="geometry" />
        </mxCell>
        <mxCell id="y_KYwoBWBj3VRFZjpKTt-38" value="Área do professor" style="text;html=1;strokeColor=none;fillColor=none;align=center;verticalAlign=middle;whiteSpace=wrap;rounded=0;fontSize=12;fontColor=#46495D;" vertex="1" parent="y_KYwoBWBj3VRFZjpKTt-33">
          <mxGeometry x="60" y="5" width="60" height="30" as="geometry" />
        </mxCell>
        <mxCell id="y_KYwoBWBj3VRFZjpKTt-41" value="Atribuir tarefa 01" style="text;html=1;strokeColor=none;fillColor=none;align=center;verticalAlign=middle;whiteSpace=wrap;rounded=0;fontSize=12;fontColor=#46495D;" vertex="1" parent="y_KYwoBWBj3VRFZjpKTt-33">
          <mxGeometry x="10" y="50" width="100" height="30" as="geometry" />
        </mxCell>
        <mxCell id="y_KYwoBWBj3VRFZjpKTt-42" value="Atribuir tarefa 02" style="text;html=1;strokeColor=none;fillColor=none;align=center;verticalAlign=middle;whiteSpace=wrap;rounded=0;fontSize=12;fontColor=#46495D;" vertex="1" parent="y_KYwoBWBj3VRFZjpKTt-33">
          <mxGeometry x="10" y="90" width="100" height="30" as="geometry" />
        </mxCell>
        <mxCell id="y_KYwoBWBj3VRFZjpKTt-43" value="Atribuir tarefa 03" style="text;html=1;strokeColor=none;fillColor=none;align=center;verticalAlign=middle;whiteSpace=wrap;rounded=0;fontSize=12;fontColor=#46495D;" vertex="1" parent="y_KYwoBWBj3VRFZjpKTt-33">
          <mxGeometry x="10" y="130" width="100" height="30" as="geometry" />
        </mxCell>
        <mxCell id="y_KYwoBWBj3VRFZjpKTt-46" value="" style="shape=actor;whiteSpace=wrap;html=1;fontSize=12;fillColor=#B2C9AB;strokeColor=#788AA3;fontColor=#46495D;" vertex="1" parent="y_KYwoBWBj3VRFZjpKTt-33">
          <mxGeometry x="150" y="10" width="40" height="20" as="geometry" />
        </mxCell>
        <mxCell id="y_KYwoBWBj3VRFZjpKTt-55" value="ENVIAR" style="rounded=1;whiteSpace=wrap;html=1;fontSize=12;fillColor=#B2C9AB;strokeColor=#788AA3;fontColor=#46495D;" vertex="1" parent="y_KYwoBWBj3VRFZjpKTt-33">
          <mxGeometry x="40" y="340" width="120" height="40" as="geometry" />
        </mxCell>
        <mxCell id="y_KYwoBWBj3VRFZjpKTt-58" value="" style="html=1;verticalLabelPosition=bottom;align=center;labelBackgroundColor=#ffffff;verticalAlign=top;strokeWidth=2;strokeColor=#0080F0;shadow=0;dashed=0;shape=mxgraph.ios7.icons.pointer;fontFamily=Helvetica;fontSize=12;fontColor=#46495D;fillColor=#B2C9AB;sketch=0;" vertex="1" parent="y_KYwoBWBj3VRFZjpKTt-33">
          <mxGeometry x="130" y="350" width="20" height="18" as="geometry" />
        </mxCell>
        <mxCell id="y_KYwoBWBj3VRFZjpKTt-35" value="" style="swimlane;startSize=0;fontSize=9;fillColor=#B2C9AB;strokeColor=#788AA3;fontColor=#46495D;" vertex="1" parent="1">
          <mxGeometry x="220" y="40" width="200" height="390" as="geometry" />
        </mxCell>
        <mxCell id="y_KYwoBWBj3VRFZjpKTt-39" value="Tarefas" style="text;html=1;strokeColor=none;fillColor=none;align=center;verticalAlign=middle;whiteSpace=wrap;rounded=0;fontSize=12;fontColor=#46495D;" vertex="1" parent="y_KYwoBWBj3VRFZjpKTt-35">
          <mxGeometry x="67.5" width="60" height="30" as="geometry" />
        </mxCell>
        <mxCell id="y_KYwoBWBj3VRFZjpKTt-59" value="Tarefa 01" style="text;html=1;strokeColor=none;fillColor=none;align=center;verticalAlign=middle;whiteSpace=wrap;rounded=0;fontSize=12;fontColor=#46495D;" vertex="1" parent="y_KYwoBWBj3VRFZjpKTt-35">
          <mxGeometry x="20" y="50" width="150" height="30" as="geometry" />
        </mxCell>
        <mxCell id="y_KYwoBWBj3VRFZjpKTt-60" value="" style="rounded=1;whiteSpace=wrap;html=1;fontSize=12;fillColor=#B2C9AB;strokeColor=#788AA3;fontColor=#46495D;" vertex="1" parent="y_KYwoBWBj3VRFZjpKTt-35">
          <mxGeometry x="35" y="80" width="120" height="40" as="geometry" />
        </mxCell>
        <mxCell id="y_KYwoBWBj3VRFZjpKTt-61" value="Tarefa 02" style="text;html=1;strokeColor=none;fillColor=none;align=center;verticalAlign=middle;whiteSpace=wrap;rounded=0;fontSize=12;fontColor=#46495D;" vertex="1" parent="y_KYwoBWBj3VRFZjpKTt-35">
          <mxGeometry x="65" y="130" width="60" height="30" as="geometry" />
        </mxCell>
        <mxCell id="y_KYwoBWBj3VRFZjpKTt-62" value="" style="rounded=1;whiteSpace=wrap;html=1;fontSize=12;fillColor=#B2C9AB;strokeColor=#788AA3;fontColor=#46495D;" vertex="1" parent="y_KYwoBWBj3VRFZjpKTt-35">
          <mxGeometry x="37.5" y="160" width="120" height="40" as="geometry" />
        </mxCell>
        <mxCell id="y_KYwoBWBj3VRFZjpKTt-63" value="Tarefa 03" style="text;html=1;strokeColor=none;fillColor=none;align=center;verticalAlign=middle;whiteSpace=wrap;rounded=0;fontSize=12;fontColor=#46495D;" vertex="1" parent="y_KYwoBWBj3VRFZjpKTt-35">
          <mxGeometry x="67.5" y="210" width="60" height="30" as="geometry" />
        </mxCell>
        <mxCell id="y_KYwoBWBj3VRFZjpKTt-64" value="" style="rounded=1;whiteSpace=wrap;html=1;fontSize=12;fillColor=#B2C9AB;strokeColor=#788AA3;fontColor=#46495D;" vertex="1" parent="y_KYwoBWBj3VRFZjpKTt-35">
          <mxGeometry x="37.5" y="240" width="120" height="40" as="geometry" />
        </mxCell>
        <mxCell id="y_KYwoBWBj3VRFZjpKTt-66" value="" style="shape=image;html=1;verticalAlign=top;verticalLabelPosition=bottom;labelBackgroundColor=#ffffff;imageAspect=0;aspect=fixed;image=https://cdn4.iconfinder.com/data/icons/evil-icons-user-interface/64/clip-128.png;rounded=0;sketch=0;fontColor=#46495D;strokeColor=#788AA3;fillColor=#B2C9AB;" vertex="1" parent="y_KYwoBWBj3VRFZjpKTt-35">
          <mxGeometry x="125" y="85" width="30" height="30" as="geometry" />
        </mxCell>
        <mxCell id="y_KYwoBWBj3VRFZjpKTt-67" style="edgeStyle=orthogonalEdgeStyle;curved=0;rounded=1;sketch=0;orthogonalLoop=1;jettySize=auto;html=1;exitX=0.5;exitY=1;exitDx=0;exitDy=0;fontColor=#46495D;strokeColor=#788AA3;fillColor=#B2C9AB;" edge="1" parent="y_KYwoBWBj3VRFZjpKTt-35" source="y_KYwoBWBj3VRFZjpKTt-66" target="y_KYwoBWBj3VRFZjpKTt-66">
          <mxGeometry relative="1" as="geometry" />
        </mxCell>
        <mxCell id="y_KYwoBWBj3VRFZjpKTt-68" value="" style="shape=image;html=1;verticalAlign=top;verticalLabelPosition=bottom;labelBackgroundColor=#ffffff;imageAspect=0;aspect=fixed;image=https://cdn4.iconfinder.com/data/icons/evil-icons-user-interface/64/clip-128.png;rounded=0;sketch=0;fontColor=#46495D;strokeColor=#788AA3;fillColor=#B2C9AB;" vertex="1" parent="y_KYwoBWBj3VRFZjpKTt-35">
          <mxGeometry x="123.75" y="165" width="30" height="30" as="geometry" />
        </mxCell>
        <mxCell id="y_KYwoBWBj3VRFZjpKTt-69" value="" style="shape=image;html=1;verticalAlign=top;verticalLabelPosition=bottom;labelBackgroundColor=#ffffff;imageAspect=0;aspect=fixed;image=https://cdn4.iconfinder.com/data/icons/evil-icons-user-interface/64/clip-128.png;rounded=0;sketch=0;fontColor=#46495D;strokeColor=#788AA3;fillColor=#B2C9AB;" vertex="1" parent="y_KYwoBWBj3VRFZjpKTt-35">
          <mxGeometry x="125" y="245" width="30" height="30" as="geometry" />
        </mxCell>
        <mxCell id="y_KYwoBWBj3VRFZjpKTt-70" value="Anexar respostas" style="text;html=1;strokeColor=none;fillColor=none;align=center;verticalAlign=middle;whiteSpace=wrap;rounded=0;sketch=0;fontColor=#46495D;" vertex="1" parent="y_KYwoBWBj3VRFZjpKTt-35">
          <mxGeometry x="50" y="85" width="60" height="30" as="geometry" />
        </mxCell>
        <mxCell id="y_KYwoBWBj3VRFZjpKTt-72" value="Anexar respostas" style="text;html=1;strokeColor=none;fillColor=none;align=center;verticalAlign=middle;whiteSpace=wrap;rounded=0;sketch=0;fontColor=#46495D;" vertex="1" parent="y_KYwoBWBj3VRFZjpKTt-35">
          <mxGeometry x="50" y="165" width="60" height="30" as="geometry" />
        </mxCell>
        <mxCell id="y_KYwoBWBj3VRFZjpKTt-71" value="Anexar respostas" style="text;html=1;strokeColor=none;fillColor=none;align=center;verticalAlign=middle;whiteSpace=wrap;rounded=0;sketch=0;fontColor=#46495D;" vertex="1" parent="y_KYwoBWBj3VRFZjpKTt-35">
          <mxGeometry x="50" y="245" width="60" height="30" as="geometry" />
        </mxCell>
        <mxCell id="y_KYwoBWBj3VRFZjpKTt-74" value="ENVIAR" style="rounded=1;whiteSpace=wrap;html=1;fontSize=12;fillColor=#B2C9AB;strokeColor=#788AA3;fontColor=#46495D;" vertex="1" parent="y_KYwoBWBj3VRFZjpKTt-35">
          <mxGeometry x="40" y="340" width="120" height="40" as="geometry" />
        </mxCell>
        <mxCell id="y_KYwoBWBj3VRFZjpKTt-75" value="" style="html=1;verticalLabelPosition=bottom;align=center;labelBackgroundColor=#ffffff;verticalAlign=top;strokeWidth=2;strokeColor=#0080F0;shadow=0;dashed=0;shape=mxgraph.ios7.icons.pointer;fontFamily=Helvetica;fontSize=12;fontColor=#46495D;fillColor=#B2C9AB;sketch=0;" vertex="1" parent="y_KYwoBWBj3VRFZjpKTt-35">
          <mxGeometry x="133.75" y="351" width="20" height="18" as="geometry" />
        </mxCell>
        <mxCell id="y_KYwoBWBj3VRFZjpKTt-36" value="" style="swimlane;startSize=0;fontSize=9;fillColor=#B2C9AB;strokeColor=#788AA3;fontColor=#46495D;" vertex="1" parent="1">
          <mxGeometry x="420" y="40" width="200" height="390" as="geometry" />
        </mxCell>
        <mxCell id="y_KYwoBWBj3VRFZjpKTt-40" value="Área do aluno" style="text;html=1;strokeColor=none;fillColor=none;align=center;verticalAlign=middle;whiteSpace=wrap;rounded=0;fontSize=12;fontColor=#46495D;" vertex="1" parent="y_KYwoBWBj3VRFZjpKTt-36">
          <mxGeometry x="70" y="2.5" width="60" height="30" as="geometry" />
        </mxCell>
        <mxCell id="y_KYwoBWBj3VRFZjpKTt-47" value="" style="shape=actor;whiteSpace=wrap;html=1;fontSize=12;fillColor=#B2C9AB;strokeColor=#788AA3;fontColor=#46495D;" vertex="1" parent="y_KYwoBWBj3VRFZjpKTt-36">
          <mxGeometry x="155" y="7.5" width="40" height="25" as="geometry" />
        </mxCell>
        <mxCell id="y_KYwoBWBj3VRFZjpKTt-77" value="Nota atividade 01 8/10" style="text;html=1;strokeColor=none;fillColor=none;align=center;verticalAlign=middle;whiteSpace=wrap;rounded=0;sketch=0;fontColor=#46495D;" vertex="1" parent="y_KYwoBWBj3VRFZjpKTt-36">
          <mxGeometry x="20" y="90" width="170" height="30" as="geometry" />
        </mxCell>
        <mxCell id="y_KYwoBWBj3VRFZjpKTt-78" value="Nota atividade 02 9/10" style="text;html=1;strokeColor=none;fillColor=none;align=center;verticalAlign=middle;whiteSpace=wrap;rounded=0;sketch=0;fontColor=#46495D;" vertex="1" parent="y_KYwoBWBj3VRFZjpKTt-36">
          <mxGeometry x="25" y="160" width="160" height="30" as="geometry" />
        </mxCell>
        <mxCell id="y_KYwoBWBj3VRFZjpKTt-79" value="Nota atividade 03 7/10" style="text;html=1;strokeColor=none;fillColor=none;align=center;verticalAlign=middle;whiteSpace=wrap;rounded=0;sketch=0;fontColor=#46495D;" vertex="1" parent="y_KYwoBWBj3VRFZjpKTt-36">
          <mxGeometry x="25" y="250" width="150" height="30" as="geometry" />
        </mxCell>
        <mxCell id="y_KYwoBWBj3VRFZjpKTt-37" value="" style="endArrow=none;html=1;rounded=0;fontSize=9;exitX=0.007;exitY=0.095;exitDx=0;exitDy=0;exitPerimeter=0;entryX=1.006;entryY=0.097;entryDx=0;entryDy=0;entryPerimeter=0;strokeColor=#788AA3;fontColor=#46495D;" edge="1" parent="1" source="y_KYwoBWBj3VRFZjpKTt-33" target="y_KYwoBWBj3VRFZjpKTt-36">
          <mxGeometry width="50" height="50" relative="1" as="geometry">
            <mxPoint x="340" y="280" as="sourcePoint" />
            <mxPoint x="390" y="230" as="targetPoint" />
          </mxGeometry>
        </mxCell>
      </root>
    </mxGraphModel>
  </diagram>
</mxfile>
